<svg width="64" height="54" viewBox="0 0 64 54" fill="none" xmlns="http://www.w3.org/2000/svg">
<g filter="url(#filter0_d_31_109)">
<rect x="4" width="56" height="46" rx="6" fill="#1C2340"/>
</g>
<path d="M31.786 25.916V26.046H33.814V26.306H33.71V26.696H28.328V26.826H29.264V27.216H32.124V27.476H30.642V27.996H30.564V28.126H28.848V28.516H31.396V28.646H31.5V29.036H31.76V29.556H26.742V29.946H32.046V30.206H30.278V30.596H30.044V30.856H30.642V31.116H30.252V31.376H31.162L31.084 31.636H32.306C32.2713 31.688 32.228 31.74 32.176 31.792C32.1413 31.8267 32.098 31.8613 32.046 31.896H32.644C32.5573 31.9653 32.436 32 32.28 32H27.184C27.028 32 26.9067 31.9653 26.82 31.896H26.222C26.1007 31.844 26.014 31.7573 25.962 31.636H24.74L24.662 31.376H23.752V31.116H24.142V30.856H23.544V30.596H23.778V30.206H25.546V29.946H20.84V30.206H18.682V30.596H20.164V30.856H19.8V31.116H21.152V31.376H19.696L19.618 31.636H20.19C20.1207 31.7573 20.0427 31.844 19.956 31.896H19.332C19.2453 31.9653 19.124 32 18.968 32H13.872C13.6987 32 13.5687 31.9653 13.482 31.896H14.106C14.0193 31.844 13.9413 31.7573 13.872 31.636H13.274C13.222 31.5493 13.196 31.4627 13.196 31.376H14.652V31.116H13.3V30.856H13.664V30.596H12.182V30.206H14.34V29.946H15.588V29.556H11.584V29.036H13.066V28.646H14.106V28.516H13.378V28.126H12.156V27.996H12.416V27.476H13.248V27.216H13.638V26.826H11.766V26.696H16.576V26.306H10.7V26.046H16.238V25.916H13.534V25.526H15.094V25.396H15.406V25.266H15.276V24.746H12.702V24.356H13.56V24.226H13.326V23.836H13.43V23.706H13.456V23.446H13.482V23.316H13.144V23.186H12.13V22.796H12.468V22.406H11.948V22.016H13.248V21.496H12.962V21.236H11.064V21.106H14.106V20.846H14.834V20.716H7.814V20.586H11.948V20.456H13.43V20.066H10.778V19.546H10.05V19.156H13.17V18.636H13.43V18.246H15.094V18.116H13.664V17.596H14.834V17.336H13.43V17.206H12.936V16.946H12.182V16.686H11.272V16.166H12.91V15.776H13.898V15.386H13.43V15.126H12.78V14.996H13.144V14.736H13.066V14.502C13.066 14.3807 13.092 14.2853 13.144 14.216H14.808C14.8253 14.164 14.8513 14.1207 14.886 14.086C14.9207 14.034 14.9553 13.9907 14.99 13.956H18.994C19.098 13.852 19.2453 13.8 19.436 13.8H29.42C29.5933 13.8 29.7407 13.852 29.862 13.956H33.866C33.9007 13.9907 33.9353 14.034 33.97 14.086C34.022 14.1207 34.0567 14.164 34.074 14.216H30.72C30.7547 14.32 30.772 14.4153 30.772 14.502V14.736H30.902V14.996H31.266V15.126H30.564V15.386H30.252V15.776H31.266V16.166H28.822V16.686H31.63V16.946H29.602V17.206H30.434V17.336H30.018V17.596H31.968V18.116H29.108V18.246H31.318V18.636H30.928V19.156H28.848V19.546H27.99V20.066H30.642V20.456H29.16V20.586H25.026V20.716H32.046V20.846H31.318V21.106H28.276V21.236H30.174V21.496H30.46V22.016H29.16V22.406H29.68V22.796H29.342V23.186H30.356V23.316H30.694V23.446H30.668V23.706H30.642V23.836H30.538V24.226H30.772V24.356H29.914V24.746H32.488V25.266H32.618V25.396H32.306V25.526H30.746V25.916H31.786ZM16.55 19.156V19.546H17.278V19.962H21.49V19.546H22.348V19.156H24.428V18.636H24.818V18.246H22.608V18.116H25.468V17.596H23.518V17.336H23.934V17.206H23.102V16.946H25.13V16.686H22.322V16.166H24.766V15.776H23.752V15.386H24.064V15.126H24.766V14.996H24.402V14.736H24.272V14.502C24.272 14.4153 24.2893 14.32 24.324 14.216H27.678C27.7127 14.164 27.7473 14.1207 27.782 14.086C27.8167 14.034 27.8513 13.9907 27.886 13.956H20.97C21.0567 14.0253 21.126 14.112 21.178 14.216H19.514C19.5487 14.268 19.566 14.3633 19.566 14.502V14.736H19.644V14.996H19.28V15.126H19.93V15.386H20.398V15.776H19.41V16.166H17.772V16.686H18.682V16.946H19.436V17.206H19.93V17.336H21.334V17.596H20.164V18.116H21.594V18.246H19.93V18.636H19.67V19.156H16.55ZM27.314 26.306V26.046H25.286V25.916H24.246V25.682H20.034V25.916H22.738V26.046H17.2V26.306H23.076V26.696H27.21V26.306H27.314ZM25.624 27.216H22.764V26.826H21.828V26.696H18.266V26.826H20.138V27.216H19.748V27.476H18.916V27.996H18.656V28.126H19.878V28.516H20.606V28.646H19.566V29.036H18.084V29.556H25.26V29.036H25V28.646H24.896V28.516H22.348V28.126H24.064V27.996H24.142V27.476H25.624V27.216ZM53.326 17.856C53.3607 17.9253 53.3953 17.9947 53.43 18.064C53.4647 18.116 53.4907 18.1767 53.508 18.246H52.546C52.5807 18.3153 52.6153 18.402 52.65 18.506C52.6847 18.5927 52.7193 18.6793 52.754 18.766H48.672L48.828 19.286H50.934L51.012 19.676H50.726C50.7433 19.7107 50.752 19.754 50.752 19.806C50.752 19.858 50.7607 19.9013 50.778 19.936H50.076L50.102 20.196H50.648C50.648 20.2653 50.648 20.3347 50.648 20.404C50.6653 20.456 50.674 20.5167 50.674 20.586H51.636C51.6533 20.6553 51.662 20.716 51.662 20.768C51.662 20.82 51.662 20.8807 51.662 20.95V20.976H49.218C49.218 21.0627 49.218 21.1493 49.218 21.236C49.2353 21.3227 49.244 21.4093 49.244 21.496H49.79C49.79 21.5827 49.79 21.6693 49.79 21.756C49.8073 21.8427 49.816 21.9293 49.816 22.016H50.752V22.146H50.388V22.666H50.492V23.056H52.026V23.576H50.57V23.836H50.414C50.414 23.8707 50.414 23.914 50.414 23.966C50.414 24.018 50.4053 24.0613 50.388 24.096H49.92V24.616H49.972C49.9547 24.668 49.946 24.7373 49.946 24.824V24.876H50.908C50.908 24.9453 50.8993 25.0147 50.882 25.084C50.882 25.136 50.882 25.1967 50.882 25.266H51.272C51.272 25.3527 51.2633 25.4393 51.246 25.526C51.246 25.6127 51.2373 25.6993 51.22 25.786H50.648C50.6307 25.8207 50.622 25.864 50.622 25.916C50.622 25.968 50.6133 26.0113 50.596 26.046H47.476C47.476 26.1153 47.4587 26.202 47.424 26.306H50.154C50.1193 26.41 50.102 26.4967 50.102 26.566H50.492C50.4747 26.6353 50.4573 26.7047 50.44 26.774C50.44 26.826 50.4227 26.8867 50.388 26.956L50.31 27.216H49.556L49.504 27.346H50.726C50.6913 27.4153 50.674 27.4587 50.674 27.476H49.894L49.842 27.606H49.816C49.7813 27.6927 49.7467 27.7793 49.712 27.866C49.6773 27.9527 49.634 28.0393 49.582 28.126H49.192L48.906 28.646H49.348L49.192 28.906H49.218C49.1833 28.9407 49.1487 28.984 49.114 29.036C49.0793 29.088 49.0447 29.1313 49.01 29.166H48.828C48.776 29.218 48.7413 29.2613 48.724 29.296C48.672 29.3653 48.62 29.4347 48.568 29.504C48.516 29.556 48.4553 29.6167 48.386 29.686H48.308C48.2213 29.7727 48.126 29.8593 48.022 29.946C47.9353 30.0327 47.84 30.1193 47.736 30.206H47.97L47.424 30.596H47.45C47.3113 30.6827 47.164 30.7693 47.008 30.856C46.852 30.9427 46.6873 31.0293 46.514 31.116H46.488C46.3147 31.2027 46.098 31.2893 45.838 31.376H45.864C45.5173 31.4973 45.1533 31.6013 44.772 31.688C44.3907 31.7747 44.0007 31.844 43.602 31.896H44.148C43.8707 31.9307 43.5847 31.9567 43.29 31.974C42.9953 31.9913 42.692 32 42.38 32H34.762C34.606 32 34.4847 31.9653 34.398 31.896H33.852C33.6787 31.792 33.5747 31.6187 33.54 31.376H33.514V31.116H33.566V30.596H33.514V30.206H33.306V29.686H33.384V29.296H33.358V29.166H33.566V28.906H33.54V28.646H33.072V28.126H33.488V27.606H33.514V27.476H34.294V27.346H33.098V27.216H33.852V26.566H33.488V26.306H33.462V26.046H34.138V25.786H31.148V25.266H31.044V24.876H31.382V24.616H32.448V24.096H33.124V23.836H33.514V23.576H33.93V23.056H34.528V22.666H35.1V22.146H33.358V22.016H32.786V21.496H31.642V20.976H34.606V20.586H32.318V20.196H33.566V19.936H33.514V19.676H33.306V19.286H32.188V18.766H36.244V18.246H37.206V17.856H32.526V17.336H35.594V17.206H33.176V17.076H38.09V16.556H37.466V16.426H31.278V15.906H32.032V15.516H33.644V15.386H34.502V15.126H34.034V14.996H33.488V14.736H33.54V14.502C33.54 14.4673 33.54 14.4413 33.54 14.424C33.5573 14.3893 33.566 14.3633 33.566 14.346H33.67C33.7567 13.982 33.9907 13.8 34.372 13.8H41.86C43.1947 13.8 44.408 13.982 45.5 14.346H45.396C45.708 14.45 46.0287 14.58 46.358 14.736H46.306C46.3927 14.7707 46.4793 14.814 46.566 14.866C46.67 14.9007 46.7567 14.944 46.826 14.996H47.372L47.606 15.126H48.048C48.1347 15.1607 48.204 15.204 48.256 15.256C48.3253 15.308 48.3947 15.3513 48.464 15.386H47.606C47.6407 15.4033 47.6753 15.4207 47.71 15.438C47.7447 15.4553 47.7707 15.4813 47.788 15.516H46.176L46.67 15.906H45.89C46.0807 16.062 46.254 16.2353 46.41 16.426H52.598C52.6153 16.4433 52.6327 16.4607 52.65 16.478C52.6673 16.4953 52.6847 16.5213 52.702 16.556H53.352C53.4213 16.6253 53.4907 16.712 53.56 16.816C53.6293 16.9027 53.69 16.9893 53.742 17.076H48.828C48.8453 17.0933 48.8627 17.1107 48.88 17.128C48.8973 17.1453 48.9147 17.1713 48.932 17.206H51.35L51.428 17.336H48.36C48.4813 17.5093 48.5767 17.6827 48.646 17.856H53.326ZM44.148 19.676C44.044 19.52 43.914 19.39 43.758 19.286H41.652C41.2707 19.0087 40.8027 18.87 40.248 18.87H38.688V19.286H39.806V19.676H40.014V19.936H40.066V20.196H38.818V20.586H41.106V20.976H38.142V21.496H39.286V22.016H39.858V22.146H41.6V22.666H41.028V23.056H40.43V23.576H40.014V23.836H39.624V24.096H38.948V24.616H37.882V24.876H37.544V25.266H37.648V25.786H40.638V26.046H39.962V26.306H39.988V26.566H40.352V26.93H42.042C42.5447 26.93 42.9693 26.8087 43.316 26.566H42.9C42.952 26.5313 43.004 26.4967 43.056 26.462C43.108 26.41 43.1513 26.358 43.186 26.306H40.482C40.5167 26.2713 40.5513 26.2367 40.586 26.202C40.6207 26.15 40.6467 26.098 40.664 26.046H43.784C43.8187 26.0113 43.8447 25.9767 43.862 25.942C43.8793 25.89 43.8967 25.838 43.914 25.786H44.512C44.5467 25.6993 44.5727 25.6127 44.59 25.526C44.6073 25.4393 44.6247 25.3527 44.642 25.266H44.252C44.2693 25.1967 44.278 25.136 44.278 25.084C44.278 25.0147 44.2867 24.9453 44.304 24.876H43.342V24.824C43.342 24.7893 43.342 24.7547 43.342 24.72C43.3593 24.6853 43.368 24.6507 43.368 24.616H43.316C43.316 24.5293 43.316 24.4427 43.316 24.356C43.316 24.252 43.3247 24.1653 43.342 24.096H43.81V23.836H43.966L43.992 23.576H45.448V23.056H43.914V22.666H43.81V22.146H44.174V22.016H43.212V21.496H42.64C42.64 21.4093 42.64 21.3227 42.64 21.236C42.64 21.1493 42.6313 21.0627 42.614 20.976H45.058V20.95C45.058 20.8807 45.0493 20.82 45.032 20.768C45.032 20.6987 45.032 20.638 45.032 20.586H44.07C44.0527 20.5167 44.0353 20.456 44.018 20.404C44.0007 20.3347 43.9833 20.2653 43.966 20.196H43.42C43.4027 20.144 43.3853 20.1007 43.368 20.066C43.3507 20.014 43.3333 19.9707 43.316 19.936H44.018C44.0007 19.884 43.9747 19.8407 43.94 19.806C43.9227 19.754 43.8967 19.7107 43.862 19.676H44.148Z" fill="white"/>
<defs>
<filter id="filter0_d_31_109" x="0" y="0" width="64" height="54" filterUnits="userSpaceOnUse" color-interpolation-filters="sRGB">
<feFlood flood-opacity="0" result="BackgroundImageFix"/>
<feColorMatrix in="SourceAlpha" type="matrix" values="0 0 0 0 0 0 0 0 0 0 0 0 0 0 0 0 0 0 127 0" result="hardAlpha"/>
<feOffset dy="4"/>
<feGaussianBlur stdDeviation="2"/>
<feComposite in2="hardAlpha" operator="out"/>
<feColorMatrix type="matrix" values="0 0 0 0 0 0 0 0 0 0 0 0 0 0 0 0 0 0 0.25 0"/>
<feBlend mode="normal" in2="BackgroundImageFix" result="effect1_dropShadow_31_109"/>
<feBlend mode="normal" in="SourceGraphic" in2="effect1_dropShadow_31_109" result="shape"/>
</filter>
</defs>
</svg>
